<svg width="200" height="200" viewBox="0 0 200 200" fill="none" xmlns="http://www.w3.org/2000/svg">
  <defs>
    <filter id="glow" x="-20%" y="-20%" width="140%" height="140%">
      <feGaussianBlur stdDeviation="1.5" result="blur" />
      <feComposite in="SourceGraphic" in2="blur" operator="over" />
    </filter>
  </defs>
  <g transform="translate(100, 100)" filter="url(#glow)">
    <g transform="rotate(0)">
      <ellipse cx="30" cy="0" rx="40" ry="60" stroke="white" stroke-width="0.3" opacity="0.4" fill="none" />
      <ellipse cx="28" cy="0" rx="38" ry="58" stroke="white" stroke-width="0.2" opacity="0.3" fill="none" />
      <ellipse cx="26" cy="0" rx="36" ry="56" stroke="white" stroke-width="0.1" opacity="0.2" fill="none" />
    </g>
    <g transform="rotate(72)">
      <ellipse cx="30" cy="0" rx="40" ry="60" stroke="white" stroke-width="0.3" opacity="0.4" fill="none" />
      <ellipse cx="28" cy="0" rx="38" ry="58" stroke="white" stroke-width="0.2" opacity="0.3" fill="none" />
      <ellipse cx="26" cy="0" rx="36" ry="56" stroke="white" stroke-width="0.1" opacity="0.2" fill="none" />
    </g>
    <g transform="rotate(144)">
      <ellipse cx="30" cy="0" rx="40" ry="60" stroke="white" stroke-width="0.3" opacity="0.4" fill="none" />
      <ellipse cx="28" cy="0" rx="38" ry="58" stroke="white" stroke-width="0.2" opacity="0.3" fill="none" />
      <ellipse cx="26" cy="0" rx="36" ry="56" stroke="white" stroke-width="0.1" opacity="0.2" fill="none" />
    </g>
    <g transform="rotate(216)">
      <ellipse cx="30" cy="0" rx="40" ry="60" stroke="white" stroke-width="0.3" opacity="0.4" fill="none" />
      <ellipse cx="28" cy="0" rx="38" ry="58" stroke="white" stroke-width="0.2" opacity="0.3" fill="none" />
      <ellipse cx="26" cy="0" rx="36" ry="56" stroke="white" stroke-width="0.1" opacity="0.2" fill="none" />
    </g>
    <g transform="rotate(288)">
      <ellipse cx="30" cy="0" rx="40" ry="60" stroke="white" stroke-width="0.3" opacity="0.4" fill="none" />
      <ellipse cx="28" cy="0" rx="38" ry="58" stroke="white" stroke-width="0.2" opacity="0.3" fill="none" />
      <ellipse cx="26" cy="0" rx="36" ry="56" stroke="white" stroke-width="0.1" opacity="0.2" fill="none" />
    </g>
  </g>
</svg>
